<?xml version="1.0" encoding="utf-8"?>
<!-- Generator: Adobe Illustrator 19.2.0, SVG Export Plug-In . SVG Version: 6.00 Build 0)  -->
<svg version="1.1" id="Layer_1" xmlns="http://www.w3.org/2000/svg" xmlns:xlink="http://www.w3.org/1999/xlink" x="0px" y="0px"
	 viewBox="0 0 18 18" style="enable-background:new 0 0 18 18;" xml:space="preserve">
<style type="text/css">
	.st0{display:none;fill:#FAFAFA;}
	.st1{fill:none;stroke:#606060;stroke-linecap:round;stroke-linejoin:round;stroke-miterlimit:10;}
</style>
<g>
	<g id="XMLID_705_">
		<g>
			<g id="XMLID_8_">
				<path class="st0" d="M3.5,5.1c0-0.3,0.3-0.6,0.6-0.6L14,3.7c0.3,0,0.5,0.2,0.5,0.5v8.6c0,0.3-0.3,0.6-0.5,0.7L4,16.3
					c-0.3,0.1-0.5-0.1-0.5-0.4V5.1L3.5,5.1z"/>
				<path class="st1" d="M2.5,4c0-0.3,0.3-0.5,0.5-0.5l12-1c0.3,0,0.5,0.2,0.5,0.5v9c0,0.3-0.2,0.4-0.5,0.5l-12,3
					c-0.3,0.1-0.5-0.2-0.5-0.5V4L2.5,4z"/>
			</g>
		</g>
	</g>
	<line id="XMLID_704_" class="st1" x1="9.5" y1="13.5" x2="9.5" y2="3.5"/>
	<line id="XMLID_703_" class="st1" x1="2.5" y1="9.5" x2="15.5" y2="7.5"/>
</g>
</svg>
